<svg xmlns="http://www.w3.org/2000/svg" version="1.1" xmlns:xlink="http://www.w3.org/1999/xlink" xmlns:svgjs="http://svgjs.com/svgjs" width="1440" height="560" preserveAspectRatio="none" viewBox="0 0 1440 560"><g mask="url(&quot;#SvgjsMask1000&quot;)" fill="none"><rect width="1440" height="560" x="0" y="0" fill="#0e2a47"></rect><path d="M 0,55 C 57.6,82.6 172.8,198.6 288,193 C 403.2,187.4 460.8,20.8 576,27 C 691.2,33.2 748.8,220 864,224 C 979.2,228 1036.8,48.2 1152,47 C 1267.2,45.8 1382.4,183.8 1440,218L1440 560L0 560z" fill="#184a7e"></path><path d="M 0,376 C 96,405.2 288,536.4 480,522 C 672,507.6 768,299.4 960,304 C 1152,308.6 1344,496.8 1440,545L1440 560L0 560z" fill="#2264ab"></path></g><defs><mask id="SvgjsMask1000"><rect width="1440" height="560" fill="#ffffff"></rect></mask></defs></svg>